<svg width="20" height="19" viewBox="0 0 20 19" fill="none" xmlns="http://www.w3.org/2000/svg">
<path d="M10 13.5C10.55 13.5 11.0208 13.3042 11.4125 12.9125C11.8042 12.5208 12 12.05 12 11.5C12 10.95 11.8042 10.4792 11.4125 10.0875C11.0208 9.69583 10.55 9.5 10 9.5C9.45 9.5 8.97917 9.69583 8.5875 10.0875C8.19583 10.4792 8 10.95 8 11.5C8 12.05 8.19583 12.5208 8.5875 12.9125C8.97917 13.3042 9.45 13.5 10 13.5ZM2 19C1.45 19 0.979167 18.8042 0.5875 18.4125C0.195833 18.0208 0 17.55 0 17V6C0 5.45 0.195833 4.97917 0.5875 4.5875C0.979167 4.19583 1.45 4 2 4H6V2C6 1.45 6.19583 0.979167 6.5875 0.5875C6.97917 0.195833 7.45 0 8 0H12C12.55 0 13.0208 0.195833 13.4125 0.5875C13.8042 0.979167 14 1.45 14 2V4H18C18.55 4 19.0208 4.19583 19.4125 4.5875C19.8042 4.97917 20 5.45 20 6V17C20 17.55 19.8042 18.0208 19.4125 18.4125C19.0208 18.8042 18.55 19 18 19H2ZM2 17H18V6H2V17ZM8 4H12V2H8V4Z" fill="#60584C"/>
</svg>
